<svg id="Слой_1" data-name="Слой 1" xmlns="http://www.w3.org/2000/svg" viewBox="0 0 268.27954 144.12327"><title>sign_line</title><path d="M383.93046,178.43127a1.15041,1.15041,0,0,0-.9452-.4929H351.90181a1.15331,1.15331,0,0,0-1.08507.76022l-36.06663,99.09187a1.158,1.158,0,0,0,0,.78955l15.54059,42.7011c.01015.0282.04.04117.05217.0681a1.15589,1.15589,0,0,0,.09672.23193,1.10339,1.10339,0,0,0,.23475.20035c.02566.02016.044.04286.0712.06091a1.14967,1.14967,0,0,0,.63925.21924,1.10141,1.10141,0,0,0,.63009-.22206c.02566-.01706.04046-.042.06471-.06119a1.16449,1.16449,0,0,0,.26845-.25364,1.082,1.082,0,0,0,.0571-.171c.01311-.02862.04484-.04258.05569-.07261l51.60948-141.793A1.15321,1.15321,0,0,0,383.93046,178.43127Zm-52.55468,139.078-14.31115-39.32409,35.647-97.93687h28.62456Z" transform="translate(-115.86023 -177.93836)"/><path d="M233.37236,260.98658a1.15447,1.15447,0,0,0,2.17013,0l14.45764-39.71886,14.45567,39.71886a1.15447,1.15447,0,0,0,2.17013,0l15.54962-42.71915a1.158,1.158,0,0,0,0-.78955l-14.11489-38.7793c-.01311-.03623-.05019-.054-.06655-.08826a1.09816,1.09816,0,0,0-.05076-.1486,1.1222,1.1222,0,0,0-.20007-.184,1.08669,1.08669,0,0,0-.15382-.14141,1.1267,1.1267,0,0,0-.4867-.16581c-.03285-.00381-.05752-.03-.09108-.031l-.0251.00169-.011-.00282H233.025l-.01072.00268-.02538-.00155c-.03356.001-.05823.02721-.09108.031a1.1267,1.1267,0,0,0-.4867.16581,1.08669,1.08669,0,0,0-.15382.14141,1.1222,1.1222,0,0,0-.20007.184,1.09814,1.09814,0,0,0-.05076.1486c-.01635.03426-.05344.052-.06655.08826L217.825,217.47788a1.158,1.158,0,0,0,0,.78955Zm32.16851-3.77179-14.29762-39.28334,15.63337-35.73121L279.861,217.87266Zm-.33161-76.96643L250.00028,215.01l-15.209-34.76162Zm-32.08533,1.95188,15.63337,35.73121-14.29987,39.28334-14.31792-39.34213Z" transform="translate(-115.86023 -177.93836)"/><path d="M251.08534,252.64443a1.203,1.203,0,0,0-2.17013,0l-24.70163,67.86744a1.155,1.155,0,0,0,1.08507,1.54977H274.7019a1.155,1.155,0,0,0,1.08507-1.54977Zm-24.13766,67.10721,23.0526-63.33542,23.05259,63.33542Z" transform="translate(-115.86023 -177.93836)"/><path d="M310.52264,295.36583a1.203,1.203,0,0,0-2.17013,0l-9.14524,25.12573-.00254.01706-.00874.01227-.00677.0203a1.07663,1.07663,0,0,0-.01241.15974,1.163,1.163,0,0,0-.02214.28649,1.11079,1.11079,0,0,0,.05893.252,1.19435,1.19435,0,0,0,.032.13648c.01057.02383.0368.03426.04878.0571a1.15938,1.15938,0,0,0,.06175.14818,1.10315,1.10315,0,0,0,.2387.20373,1.08879,1.08879,0,0,0,.12111.10335,1.15743,1.15743,0,0,0,.58539.17342h18.29048a1.155,1.155,0,0,0,1.08507-1.54977Zm-8.588,24.38581,7.503-20.614,7.50523,20.614Z" transform="translate(-115.86023 -177.93836)"/><path d="M229.14037,278.58a1.158,1.158,0,0,0,0-.78955l-36.06663-99.09187a1.15331,1.15331,0,0,0-1.08507-.76022H160.90523a1.1559,1.1559,0,0,0-1.08507,1.54977l51.60722,141.793c.01015.0282.04.04117.05217.0681a1.15589,1.15589,0,0,0,.09672.23193,1.10338,1.10338,0,0,0,.23475.20035c.02566.02016.044.04286.0712.06091a1.14967,1.14967,0,0,0,.63925.21924,1.10141,1.10141,0,0,0,.63009-.22206c.02566-.01706.04046-.042.06471-.06119a1.16448,1.16448,0,0,0,.26845-.25364,1.082,1.082,0,0,0,.0571-.171c.01311-.02862.04484-.04258.05569-.07261Zm-37.96155-98.33165,35.647,97.93687-14.31341,39.32409-49.95819-137.261Z" transform="translate(-115.86023 -177.93836)"/><path d="M185.25043,278.58a1.158,1.158,0,0,0,0-.78955L149.1838,178.69859a1.15331,1.15331,0,0,0-1.08507-.76022H117.01529a1.15465,1.15465,0,0,0-1.08507,1.54977l51.60722,141.793c.01015.0282.04.04117.05217.0681a1.15588,1.15588,0,0,0,.09672.23193,1.10338,1.10338,0,0,0,.23475.20035c.02566.02016.044.04286.0712.06091a1.14967,1.14967,0,0,0,.63925.21924,1.10178,1.10178,0,0,0,.63051-.22248c.02425-.01635.03849-.0399.06147-.05809a1.16564,1.16564,0,0,0,.27127-.25632,1.0715,1.0715,0,0,0,.05724-.1713c.01325-.02862.04455-.04244.05555-.07233Zm-37.96155-98.33165,35.647,97.93687-14.31341,39.32409-49.95819-137.261Z" transform="translate(-115.86023 -177.93836)"/><path d="M340.18039,179.48814a1.1559,1.1559,0,0,0-1.08507-1.54977H308.01188a1.15331,1.15331,0,0,0-1.08507.76022l-36.06663,99.09187a1.158,1.158,0,0,0,0,.78955l15.54059,42.7011c.00775.02157.031.0313.04.05231a1.10622,1.10622,0,0,0,.10208.24772,1.12156,1.12156,0,0,0,.25971.22418c.01368.01029.023.02242.03708.032a1.1239,1.1239,0,0,0,.63939.22432h.01579a1.10178,1.10178,0,0,0,.63051-.22248c.02425-.01635.03849-.0399.06147-.05809a1.16564,1.16564,0,0,0,.27127-.25632,1.07149,1.07149,0,0,0,.05724-.1713c.01325-.02862.04455-.04244.05555-.07233Zm-31.35866.76022h28.62456l-49.96045,137.261-14.31115-39.32409Z" transform="translate(-115.86023 -177.93836)"/><path d="M200.791,320.49156l-9.14524-25.12573a1.203,1.203,0,0,0-2.17013,0l-9.152,25.146a1.155,1.155,0,0,0,1.08507,1.54977l18.2938-.00113h.0079a.94741.94741,0,0,0,.72547-.30666,1.1576,1.1576,0,0,0,.24236-.22911,1.08048,1.08048,0,0,0,.06345-.18991c.0141-.03229.04935-.04935.06063-.083a1.15054,1.15054,0,0,0,.02806-.1823,1.11465,1.11465,0,0,0,.02087-.13592A1.12635,1.12635,0,0,0,200.791,320.49156Zm-17.73329-.73992,7.503-20.614,7.503,20.614Z" transform="translate(-115.86023 -177.93836)"/></svg>