<svg id="Слой_1" data-name="Слой 1" xmlns="http://www.w3.org/2000/svg" viewBox="0 0 236 125.83415"><title>sign_black</title><polygon points="84.731 125.834 84.744 125.834 84.738 125.815 84.731 125.834"/><polygon points="45.786 125.834 45.8 125.834 45.793 125.815 45.786 125.834"/><polygon points="208.419 0 176.417 87.927 190.207 125.815 236 0 208.419 0"/><polygon points="151.269 125.834 151.263 125.815 151.256 125.834 151.269 125.834"/><polygon points="104.21 72.316 112.324 50.021 118 34.427 123.676 50.021 131.79 72.316 137.472 56.705 145.587 34.41 137.472 12.115 133.063 0 119.167 0 116.833 0 102.937 0 98.528 12.115 90.413 34.41 98.528 56.705 104.21 72.316"/><polygon points="126.115 87.91 118 65.615 109.885 87.91 104.203 103.521 96.082 125.834 112.311 125.834 112.325 125.834 123.675 125.834 123.689 125.834 139.918 125.834 131.797 103.521 126.115 87.91"/><polygon points="162.626 125.815 162.62 125.834 162.633 125.834 178.862 125.834 170.741 103.521 162.626 125.815"/><polygon points="92.846 72.316 84.731 50.021 79.056 34.427 66.525 0 38.944 0 65.265 72.316 70.941 87.91 79.056 110.205 84.738 125.815 98.528 87.927 92.846 72.316"/><polygon points="27.581 0 0 0 45.793 125.815 59.583 87.927 27.581 0"/><polygon points="165.059 87.91 170.735 72.316 197.056 0 169.475 0 156.944 34.427 151.269 50.021 143.154 72.316 137.472 87.927 151.263 125.815 156.944 110.205 165.059 87.91"/><polygon points="190.2 125.834 190.214 125.834 190.207 125.815 190.2 125.834"/><polygon points="65.259 103.521 57.138 125.834 73.367 125.834 73.38 125.834 73.374 125.815 65.259 103.521"/></svg>