<svg id="Слой_1" data-name="Слой 1" xmlns="http://www.w3.org/2000/svg" viewBox="0 0 293.85031 61.3913"><title>logo_wwp_black</title><polygon points="111.516 55.687 111.787 57.758 111.852 57.769 112.221 55.687 115.018 45.374 117.112 45.374 119.932 55.687 120.3 57.801 120.365 57.801 120.658 55.687 122.914 45.374 125.234 45.374 121.417 61.164 119.509 61.164 116.352 50.211 116.114 48.79 116.049 48.79 115.821 50.211 112.622 61.164 110.714 61.164 106.907 45.374 109.217 45.374 111.516 55.687"/><polygon points="136.09 53.843 129.604 53.843 129.604 59.494 137.196 59.494 137.196 61.164 127.469 61.164 127.469 45.374 137.077 45.374 137.077 47.055 129.604 47.055 129.604 52.163 136.09 52.163 136.09 53.843"/><path d="M243.01348,280.60009V264.81h5.15137a6.24526,6.24526,0,0,1,3.87109,1.06836,3.77871,3.77871,0,0,1,1.39941,3.20508,2.89945,2.89945,0,0,1-.62891,1.82715,3.95924,3.95924,0,0,1-1.6709,1.23047,3.675,3.675,0,0,1,2.457,1.34473,4.11711,4.11711,0,0,1,.90527,2.65723,4.01549,4.01549,0,0,1-1.41016,3.3125,5.87668,5.87668,0,0,1-3.81738,1.14453Zm2.13574-9.07715h3.46a2.83787,2.83787,0,0,0,1.94141-.65625,2.63927,2.63927,0,0,0-.05957-3.74121,3.70066,3.70066,0,0,0-2.32617-.63379h-3.01562Zm0,1.66992v5.7373h4.12109a3.29394,3.29394,0,0,0,2.27246-.72168,2.59821,2.59821,0,0,0,.80762-2.04395,2.81567,2.81567,0,0,0-.82422-2.11426,3.244,3.244,0,0,0-2.22266-.85742Z" transform="translate(-103.2909 -219.43633)"/><path d="M259.26934,274.26708v6.333h-2.13574V264.81h6.04a5.56912,5.56912,0,0,1,3.93164,1.30176,4.89624,4.89624,0,0,1,0,6.86426,5.59687,5.59687,0,0,1-3.93164,1.291Zm0-1.66992h3.9043a2.86576,2.86576,0,0,0,3.18848-3.03711,3.13956,3.13956,0,0,0-.79687-2.19043,3.06664,3.06664,0,0,0-2.3916-.87793h-3.9043Z" transform="translate(-103.2909 -219.43633)"/><path d="M277.91191,276.53368h-5.94336l-1.40918,4.06641h-2.17969l5.69336-15.79h1.832l5.57422,15.79h-2.17969Zm-5.3252-1.79h4.71777l-2.29883-6.77734h-.06543Z" transform="translate(-103.2909 -219.43633)"/><path d="M294.949,275.54638l.02148.06543a4.74855,4.74855,0,0,1-1.56152,3.71973,5.97087,5.97087,0,0,1-4.24023,1.49609,5.56986,5.56986,0,0,1-4.36523-1.89746,6.98144,6.98144,0,0,1-1.68652-4.81543v-2.80859a7.00085,7.00085,0,0,1,1.68652-4.82031,5.5621,5.5621,0,0,1,4.36523-1.90332,6.13272,6.13272,0,0,1,4.26172,1.42578,4.71716,4.71716,0,0,1,1.54,3.7793l-.02148.06543h-2.0498a3.52362,3.52362,0,0,0-.97559-2.624,3.7515,3.7515,0,0,0-2.75488-.96582,3.3667,3.3667,0,0,0-2.85254,1.44238,5.874,5.874,0,0,0-1.0625,3.5791v2.83008a5.90578,5.90578,0,0,0,1.0625,3.60059,3.3643,3.3643,0,0,0,2.85254,1.44238,3.76512,3.76512,0,0,0,2.75488-.96,3.54931,3.54931,0,0,0,.97559-2.65137Z" transform="translate(-103.2909 -219.43633)"/><polygon points="197.98 54.028 196.592 54.028 196.592 61.164 194.456 61.164 194.456 45.374 196.592 45.374 196.592 52.358 197.764 52.358 203.619 45.374 206.027 45.374 206.049 45.428 199.65 52.9 206.504 61.109 206.482 61.164 203.891 61.164 197.98 54.028"/><path d="M325.0418,274.26708v6.333h-2.13574V264.81h6.04a5.56912,5.56912,0,0,1,3.93164,1.30176,4.89624,4.89624,0,0,1,0,6.86426,5.59687,5.59687,0,0,1-3.93164,1.291Zm0-1.66992h3.9043a2.86576,2.86576,0,0,0,3.18848-3.03711,3.13956,3.13956,0,0,0-.79687-2.19043,3.06664,3.06664,0,0,0-2.3916-.87793h-3.9043Z" transform="translate(-103.2909 -219.43633)"/><polygon points="235.87 59.494 243.57 59.494 243.57 61.164 233.734 61.164 233.734 45.374 235.87 45.374 235.87 59.494"/><path d="M360.29766,264.81v10.4873a5.09175,5.09175,0,0,1-1.69141,4.06641,6.42548,6.42548,0,0,1-4.35937,1.46387,6.058,6.058,0,0,1-4.208-1.46973,5.17612,5.17612,0,0,1-1.6377-4.06055V264.81h2.13672v10.4873a3.81114,3.81114,0,0,0,1.03613,2.83594,3.638,3.638,0,0,0,2.67285,1.02441,3.96062,3.96062,0,0,0,2.8252-1.02441,3.70506,3.70506,0,0,0,1.08984-2.83594V264.81Z" transform="translate(-103.2909 -219.43633)"/><path d="M375.03594,278.47411a5.07907,5.07907,0,0,1-1.958,1.61621,7.71109,7.71109,0,0,1-3.61621.7373,6.0924,6.0924,0,0,1-4.52246-1.81055,6.38145,6.38145,0,0,1-1.78906-4.68555V271.0786a6.51389,6.51389,0,0,1,1.72363-4.68457,5.8636,5.8636,0,0,1,4.44629-1.81152,5.92482,5.92482,0,0,1,4.165,1.4043,4.51284,4.51284,0,0,1,1.48535,3.57324l-.02148.06543h-2.0498a3.30733,3.30733,0,0,0-.93262-2.40234,3.52193,3.52193,0,0,0-2.64648-.96,3.581,3.581,0,0,0-2.917,1.35547,5.26315,5.26315,0,0,0-1.10645,3.43848v3.27441a5.1196,5.1196,0,0,0,1.17188,3.46484,3.769,3.769,0,0,0,2.99316,1.36133,5.56853,5.56853,0,0,0,2.21777-.36328,3.18761,3.18761,0,0,0,1.21973-.8623v-3.55664h-3.5791v-1.66992h5.71582Z" transform="translate(-103.2909 -219.43633)"/><rect x="275.64934" y="45.37372" width="2.14746" height="15.79004"/><polygon points="293.65 61.164 291.515 61.164 283.912 49.104 283.847 49.127 283.847 61.164 281.711 61.164 281.711 45.374 283.847 45.374 291.449 57.423 291.515 57.401 291.515 45.374 293.65 45.374 293.65 61.164"/><polygon points="148.449 21.117 148.577 21.117 152.702 0 159.135 0 151.869 31.119 146.076 31.119 140.348 10.622 140.22 10.622 134.513 31.119 128.721 31.119 121.455 0 127.887 0 132.034 21.095 132.163 21.095 137.762 0 142.806 0 148.449 21.117"/><polygon points="180.23 17.44 168.688 17.44 168.688 26.332 182.41 26.332 182.41 31.119 162.448 31.119 162.448 0 182.368 0 182.368 4.809 168.688 4.809 168.688 12.631 180.23 12.631 180.23 17.44"/><path d="M290.08359,250.55547V219.43633h10.19434q5.49316,0,8.57129,2.14795a7.27286,7.27286,0,0,1,3.07715,6.37988,6.60706,6.60706,0,0,1-4.35937,6.36914,6.70535,6.70535,0,0,1,4.38086,2.522,7.5712,7.5712,0,0,1,1.47461,4.63818,8.04876,8.04876,0,0,1-2.94922,6.76416q-2.94873,2.29834-8.35645,2.29785Zm6.24023-18.08154h4.168a6.24923,6.24923,0,0,0,3.84766-1.02588,3.53164,3.53164,0,0,0,1.34668-2.99219,3.735,3.735,0,0,0-1.35742-3.18457,6.66807,6.66807,0,0,0-4.05078-1.02637h-3.9541Zm0,4.31738v8.97705h5.793a5.79815,5.79815,0,0,0,3.78223-1.07959,3.9095,3.9095,0,0,0,1.30371-3.19531,4.57478,4.57478,0,0,0-1.28223-3.48389,5.42824,5.42824,0,0,0-3.86816-1.21826Z" transform="translate(-103.2909 -219.43633)"/><path d="M334.19687,243.84453H324.109l-2.09473,6.71094H315.4957l10.49414-31.11914h6.39063l10.45117,31.11914h-6.51855ZM325.648,238.95h7.03125l-3.44043-10.96436H329.11Z" transform="translate(-103.2909 -219.43633)"/><path d="M352.065,239.27031v11.28516H345.8248V219.43633h11.9043q5.36426,0,8.44238,2.73584a9.94081,9.94081,0,0,1,0,14.38379q-3.07764,2.71509-8.44238,2.71436Zm0-4.80859h5.66406a5.19125,5.19125,0,0,0,3.9541-1.42139,5.05739,5.05739,0,0,0,1.34668-3.623,5.28982,5.28982,0,0,0-1.33594-3.708,5.10011,5.10011,0,0,0-3.96484-1.46436H352.065Z" transform="translate(-103.2909 -219.43633)"/><path d="M379.95664,239.27031v11.28516h-6.24023V219.43633h11.9043q5.36426,0,8.44238,2.73584a9.94081,9.94081,0,0,1,0,14.38379q-3.07764,2.71509-8.44238,2.71436Zm0-4.80859h5.66406a5.19125,5.19125,0,0,0,3.9541-1.42139,5.05739,5.05739,0,0,0,1.34668-3.623,5.28982,5.28982,0,0,0-1.33594-3.708,5.10011,5.10011,0,0,0-3.96484-1.46436h-5.66406Z" transform="translate(-103.2909 -219.43633)"/><path d="M144.63053,280.823Z" transform="translate(-103.2909 -219.43633)"/><path d="M125.63053,280.823Z" transform="translate(-103.2909 -219.43633)"/><polygon points="92.796 61.387 115.138 0 101.683 0 86.069 42.897 92.796 61.387"/><path d="M177.08973,280.823Z" transform="translate(-103.2909 -219.43633)"/><polygon points="50.221 0 44.11 16.788 50.841 35.281 57.569 16.796 50.221 0"/><polygon points="67.069 5.911 64.918 0 57.569 16.796 64.297 35.281 71.028 16.788 67.069 5.911"/><polygon points="64.3 50.505 57.569 32.012 46.876 61.391 68.262 61.391 64.3 50.505"/><polygon points="83.3 50.505 79.34 61.387 87.262 61.391 83.3 50.505"/><polygon points="45.297 35.281 32.456 0 19 0 41.34 61.387 48.069 42.897 45.297 35.281"/><polygon points="13.456 0 0 0 22.34 61.387 29.069 42.897 13.456 0"/><polygon points="82.683 0 67.069 42.897 73.799 61.387 96.138 0 82.683 0"/><path d="M196.0864,280.823Z" transform="translate(-103.2909 -219.43633)"/><path d="M182.63053,280.823Z" transform="translate(-103.2909 -219.43633)"/><path d="M139.08472,280.82763Z" transform="translate(-103.2909 -219.43633)"/><polygon points="31.838 50.505 27.876 61.391 35.794 61.391 31.838 50.505"/><polygon points="58.138 0 50.221 0 57.569 16.796 64.918 0 58.138 0"/></svg>