<svg id="Слой_1" data-name="Слой 1" xmlns="http://www.w3.org/2000/svg" viewBox="0 0 500 77.12219"><title>border_black</title><polygon points="99.676 0 80.062 53.889 88.514 77.111 116.58 0 99.676 0"/><polygon points="44.259 21.1 52.711 44.322 61.167 21.09 56.193 7.425 53.491 0 44.974 0 35.027 0 27.351 21.09 35.807 44.322 44.259 21.1"/><polygon points="44.259 40.214 30.826 77.122 57.692 77.122 52.715 63.446 44.259 40.214"/><polygon points="71.61 77.111 71.61 77.122 81.561 77.122 76.583 63.446 71.61 77.111"/><polygon points="75.807 0 56.193 53.889 64.645 77.111 92.711 0 75.807 0"/><polygon points="6.957 77.122 16.904 77.122 16.908 77.111 11.935 63.446 6.957 77.122"/><polygon points="205.786 23.233 225.4 77.122 242.304 77.122 214.238 0.012 205.786 23.233"/><polygon points="169.983 56.022 161.532 32.801 153.076 56.033 160.752 77.122 170.698 77.122 179.215 77.122 181.918 69.697 186.891 56.033 178.435 32.801 169.983 56.022"/><polygon points="178.439 13.676 183.417 0 156.55 0 169.983 36.908 178.439 13.676"/><polygon points="202.308 13.676 207.285 0 197.334 0 197.334 0.012 202.308 13.676"/><polygon points="158.049 23.233 149.597 0.012 121.531 77.122 138.435 77.122 154.567 32.801 158.049 23.233"/><polygon points="125.729 0.012 97.663 77.122 114.567 77.122 134.181 23.233 125.729 0.012"/><polygon points="181.918 23.233 201.532 77.122 218.436 77.122 190.37 0.012 181.918 23.233"/><polygon points="142.633 0.012 142.628 0 132.682 0 137.659 13.676 142.633 0.012"/><polygon points="28.842 44.322 12.711 0 0 0 0 11.521 23.873 77.111 32.325 53.889 28.842 44.322"/><polygon points="0 30.656 0 77.099 0.004 77.111 8.456 53.889 0 30.656"/><polygon points="349.676 0 330.062 53.889 338.514 77.111 366.58 0 349.676 0"/><polygon points="294.259 21.1 302.711 44.322 311.167 21.09 306.193 7.425 303.491 0 294.974 0 285.027 0 277.351 21.09 285.807 44.322 294.259 21.1"/><polygon points="294.259 40.214 280.826 77.122 307.692 77.122 302.715 63.446 294.259 40.214"/><polygon points="321.61 77.111 321.61 77.122 331.561 77.122 326.583 63.446 321.61 77.111"/><polygon points="325.807 0 306.193 53.889 314.645 77.111 342.711 0 325.807 0"/><polygon points="256.957 77.122 266.904 77.122 266.908 77.111 261.935 63.446 256.957 77.122"/><polygon points="455.786 23.233 475.4 77.122 492.304 77.122 464.238 0.012 455.786 23.233"/><polygon points="419.983 56.022 411.532 32.801 403.076 56.033 410.752 77.122 420.698 77.122 429.215 77.122 431.918 69.697 436.891 56.033 428.435 32.801 419.983 56.022"/><polygon points="428.439 13.676 433.417 0 406.55 0 419.983 36.908 428.439 13.676"/><polygon points="452.308 13.676 457.285 0 447.334 0 447.334 0.012 452.308 13.676"/><polygon points="408.049 23.233 399.597 0.012 371.531 77.122 388.435 77.122 404.567 32.801 408.049 23.233"/><polygon points="375.729 0.012 347.663 77.122 364.567 77.122 384.181 23.233 375.729 0.012"/><polygon points="431.918 23.233 451.532 77.122 468.436 77.122 440.37 0.012 431.918 23.233"/><polygon points="392.633 0.012 392.628 0 382.682 0 387.659 13.676 392.633 0.012"/><polygon points="495.798 0 500 11.544 500 0 495.798 0"/><polygon points="471.93 0 499.996 77.111 500 77.099 500 30.679 488.834 0 471.93 0"/><polygon points="278.842 44.322 262.711 0 250 0 245.798 0 250 11.544 250 11.521 273.873 77.111 282.325 53.889 278.842 44.322"/><polygon points="250 30.656 250 30.679 238.834 0 221.93 0 250 77.111 258.456 53.889 250 30.656"/></svg>