<svg id="Слой_1" data-name="Слой 1" xmlns="http://www.w3.org/2000/svg" viewBox="0 0 294.35022 62.39111"><title>logo_wwp_line</title><polygon points="112.015 56.187 112.287 58.258 112.352 58.269 112.721 56.187 115.518 45.874 117.612 45.874 120.431 56.187 120.8 58.301 120.865 58.301 121.158 56.187 123.414 45.874 125.734 45.874 121.917 61.664 120.009 61.664 116.852 50.71 116.614 49.29 116.549 49.29 116.321 50.71 113.122 61.664 111.214 61.664 107.407 45.874 109.717 45.874 112.015 56.187"/><polygon points="136.59 54.343 130.104 54.343 130.104 59.994 137.696 59.994 137.696 61.664 127.969 61.664 127.969 45.874 137.577 45.874 137.577 47.555 130.104 47.555 130.104 52.663 136.59 52.663 136.59 54.343"/><path d="M243.01348,280.23926v-15.79h5.15137a6.24526,6.24526,0,0,1,3.87109,1.06836,3.77871,3.77871,0,0,1,1.39941,3.20508,2.89945,2.89945,0,0,1-.62891,1.82715,3.95924,3.95924,0,0,1-1.6709,1.23047,3.675,3.675,0,0,1,2.457,1.34473,4.11711,4.11711,0,0,1,.90527,2.65723,4.01549,4.01549,0,0,1-1.41016,3.3125,5.87668,5.87668,0,0,1-3.81738,1.14453Zm2.13574-9.07715h3.46a2.83787,2.83787,0,0,0,1.94141-.65625,2.63927,2.63927,0,0,0-.05957-3.74121,3.70066,3.70066,0,0,0-2.32617-.63379h-3.01562Zm0,1.66992v5.7373h4.12109a3.29394,3.29394,0,0,0,2.27246-.72168,2.59821,2.59821,0,0,0,.80762-2.04395,2.81567,2.81567,0,0,0-.82422-2.11426,3.244,3.244,0,0,0-2.22266-.85742Z" transform="translate(-102.79099 -218.57568)"/><path d="M259.26934,273.90626v6.333h-2.13574v-15.79h6.04a5.56912,5.56912,0,0,1,3.93164,1.30176,4.89624,4.89624,0,0,1,0,6.86426,5.59687,5.59687,0,0,1-3.93164,1.291Zm0-1.66992h3.9043a2.86576,2.86576,0,0,0,3.18848-3.03711,3.13956,3.13956,0,0,0-.79687-2.19043,3.06664,3.06664,0,0,0-2.3916-.87793h-3.9043Z" transform="translate(-102.79099 -218.57568)"/><path d="M277.91191,276.17286h-5.94336l-1.40918,4.06641h-2.17969l5.69336-15.79h1.832l5.57422,15.79h-2.17969Zm-5.3252-1.79h4.71777l-2.29883-6.77734h-.06543Z" transform="translate(-102.79099 -218.57568)"/><path d="M294.949,275.18555l.02148.06543a4.74855,4.74855,0,0,1-1.56152,3.71973,5.97087,5.97087,0,0,1-4.24023,1.49609,5.56986,5.56986,0,0,1-4.36523-1.89746,6.98144,6.98144,0,0,1-1.68652-4.81543v-2.80859a7.00085,7.00085,0,0,1,1.68652-4.82031,5.5621,5.5621,0,0,1,4.36523-1.90332,6.13272,6.13272,0,0,1,4.26172,1.42578,4.71716,4.71716,0,0,1,1.54,3.7793l-.02148.06543h-2.0498a3.52362,3.52362,0,0,0-.97559-2.624,3.7515,3.7515,0,0,0-2.75488-.96582,3.3667,3.3667,0,0,0-2.85254,1.44238,5.874,5.874,0,0,0-1.0625,3.5791v2.83008a5.90578,5.90578,0,0,0,1.0625,3.60059,3.3643,3.3643,0,0,0,2.85254,1.44238,3.76512,3.76512,0,0,0,2.75488-.96,3.54931,3.54931,0,0,0,.97559-2.65137Z" transform="translate(-102.79099 -218.57568)"/><polygon points="198.48 54.528 197.092 54.528 197.092 61.664 194.956 61.664 194.956 45.874 197.092 45.874 197.092 52.858 198.264 52.858 204.119 45.874 206.527 45.874 206.549 45.928 200.15 53.4 207.004 61.609 206.982 61.664 204.39 61.664 198.48 54.528"/><path d="M325.0418,273.90626v6.333h-2.13574v-15.79h6.04a5.56912,5.56912,0,0,1,3.93164,1.30176,4.89624,4.89624,0,0,1,0,6.86426,5.59687,5.59687,0,0,1-3.93164,1.291Zm0-1.66992h3.9043a2.86576,2.86576,0,0,0,3.18848-3.03711,3.13956,3.13956,0,0,0-.79687-2.19043,3.06664,3.06664,0,0,0-2.3916-.87793h-3.9043Z" transform="translate(-102.79099 -218.57568)"/><polygon points="236.37 59.994 244.07 59.994 244.07 61.664 234.234 61.664 234.234 45.874 236.37 45.874 236.37 59.994"/><path d="M360.29766,264.44923v10.4873a5.09174,5.09174,0,0,1-1.69141,4.06641,6.42548,6.42548,0,0,1-4.35937,1.46387,6.058,6.058,0,0,1-4.208-1.46973,5.17612,5.17612,0,0,1-1.6377-4.06055v-10.4873h2.13672v10.4873a3.81114,3.81114,0,0,0,1.03613,2.83594,3.638,3.638,0,0,0,2.67285,1.02441,3.96062,3.96062,0,0,0,2.8252-1.02441,3.70506,3.70506,0,0,0,1.08984-2.83594v-10.4873Z" transform="translate(-102.79099 -218.57568)"/><path d="M375.03594,278.11329a5.07907,5.07907,0,0,1-1.958,1.61621,7.71109,7.71109,0,0,1-3.61621.7373,6.0924,6.0924,0,0,1-4.52246-1.81055,6.38145,6.38145,0,0,1-1.78906-4.68555v-3.25293a6.51389,6.51389,0,0,1,1.72363-4.68457,5.8636,5.8636,0,0,1,4.44629-1.81152,5.92482,5.92482,0,0,1,4.165,1.4043,4.51284,4.51284,0,0,1,1.48535,3.57324l-.02148.06543h-2.0498a3.30733,3.30733,0,0,0-.93262-2.40234,3.52193,3.52193,0,0,0-2.64648-.96,3.581,3.581,0,0,0-2.917,1.35547,5.26315,5.26315,0,0,0-1.10645,3.43848v3.27441a5.1196,5.1196,0,0,0,1.17188,3.46484,3.769,3.769,0,0,0,2.99316,1.36133,5.56853,5.56853,0,0,0,2.21777-.36328,3.18761,3.18761,0,0,0,1.21973-.8623v-3.55664h-3.5791v-1.66992h5.71582Z" transform="translate(-102.79099 -218.57568)"/><rect x="276.14925" y="45.87354" width="2.14746" height="15.79004"/><polygon points="294.15 61.664 292.014 61.664 284.412 49.604 284.347 49.626 284.347 61.664 282.211 61.664 282.211 45.874 284.347 45.874 291.949 57.922 292.014 57.901 292.014 45.874 294.15 45.874 294.15 61.664"/><polygon points="148.949 21.617 149.077 21.617 153.202 0.5 159.635 0.5 152.369 31.619 146.576 31.619 140.848 11.122 140.72 11.122 135.013 31.619 129.221 31.619 121.955 0.5 128.387 0.5 132.534 21.595 132.663 21.595 138.262 0.5 143.306 0.5 148.949 21.617"/><polygon points="180.73 17.94 169.188 17.94 169.188 26.832 182.91 26.832 182.91 31.619 162.948 31.619 162.948 0.5 182.868 0.5 182.868 5.308 169.188 5.308 169.188 13.131 180.73 13.131 180.73 17.94"/><path d="M290.08359,250.19465V219.07551h10.19434q5.49316,0,8.57129,2.14795a7.27286,7.27286,0,0,1,3.07715,6.37988,6.60706,6.60706,0,0,1-4.35937,6.36914,6.70535,6.70535,0,0,1,4.38086,2.522,7.5712,7.5712,0,0,1,1.47461,4.63818,8.04876,8.04876,0,0,1-2.94922,6.76416q-2.94873,2.29834-8.35645,2.29785Zm6.24023-18.08154h4.168a6.24923,6.24923,0,0,0,3.84766-1.02588,3.53164,3.53164,0,0,0,1.34668-2.99219,3.735,3.735,0,0,0-1.35742-3.18457,6.66807,6.66807,0,0,0-4.05078-1.02637h-3.9541Zm0,4.31738v8.97705h5.793a5.79815,5.79815,0,0,0,3.78223-1.07959,3.9095,3.9095,0,0,0,1.30371-3.19531,4.57478,4.57478,0,0,0-1.28223-3.48389,5.42824,5.42824,0,0,0-3.86816-1.21826Z" transform="translate(-102.79099 -218.57568)"/><path d="M334.19687,243.48371H324.109l-2.09473,6.71094H315.4957l10.49414-31.11914h6.39063l10.45117,31.11914h-6.51855Zm-8.54883-4.89453h7.03125l-3.44043-10.96436H329.11Z" transform="translate(-102.79099 -218.57568)"/><path d="M352.065,238.90949v11.28516H345.8248V219.07551h11.9043q5.36426,0,8.44238,2.73584a9.94081,9.94081,0,0,1,0,14.38379q-3.07764,2.71509-8.44238,2.71436Zm0-4.80859h5.66406a5.19125,5.19125,0,0,0,3.9541-1.42139,5.05739,5.05739,0,0,0,1.34668-3.623,5.28982,5.28982,0,0,0-1.33594-3.708,5.10011,5.10011,0,0,0-3.96484-1.46436H352.065Z" transform="translate(-102.79099 -218.57568)"/><path d="M379.95664,238.90949v11.28516h-6.24023V219.07551h11.9043q5.36426,0,8.44238,2.73584a9.94081,9.94081,0,0,1,0,14.38379q-3.07764,2.71509-8.44238,2.71436Zm0-4.80859h5.66406a5.19125,5.19125,0,0,0,3.9541-1.42139,5.05739,5.05739,0,0,0,1.34668-3.623,5.28982,5.28982,0,0,0-1.33594-3.708,5.10011,5.10011,0,0,0-3.96484-1.46436h-5.66406Z" transform="translate(-102.79099 -218.57568)"/><path d="M145.0777,280.66064c.0058-.01251.01959-.01862.02435-.03174l6.728-18.48535a.49563.49563,0,0,0,0-.3418l-15.61377-42.897a.49974.49974,0,0,0-.46973-.3291H122.291a.49985.49985,0,0,0-.46973.6709l22.34131,61.38232c.00439.01215.01721.0177.02246.0293a.50149.50149,0,0,0,.03467.09082.48027.48027,0,0,0,.10907.0965c.01062.00842.01794.01831.02924.02582a.4973.4973,0,0,0,.27771.09546.47838.47838,0,0,0,.27216-.09589c.01074-.0072.0174-.01691.02759-.0249a.51133.51133,0,0,0,.11139-.10089A.473.473,0,0,0,145.0777,280.66064Zm-9.68121-61.085,15.43164,42.397-6.1958,17.02344-21.62744-59.42041Z" transform="translate(-102.79099 -218.57568)"/><path d="M126.0777,280.66064c.0058-.01251.01959-.01862.02435-.03174l6.728-18.48535a.49563.49563,0,0,0,0-.3418l-15.61377-42.897a.49974.49974,0,0,0-.46973-.3291H103.291a.49985.49985,0,0,0-.46973.6709l22.34131,61.38232c.00439.01215.01721.0177.02246.0293a.50149.50149,0,0,0,.03467.09082.48027.48027,0,0,0,.10907.0965c.01062.00842.01794.01831.02924.02582a.4973.4973,0,0,0,.27771.09546.47838.47838,0,0,0,.27216-.09589c.01074-.0072.0174-.01691.02759-.0249a.51133.51133,0,0,0,.11139-.10089A.473.473,0,0,0,126.0777,280.66064Zm-9.68121-61.085,15.43164,42.397-6.1958,17.02344-21.62744-59.42041Z" transform="translate(-102.79099 -218.57568)"/><path d="M218.83887,218.78906a.50022.50022,0,0,0-.40967-.21338H204.97363a.49974.49974,0,0,0-.46973.3291l-15.61328,42.897a.49564.49564,0,0,0,0,.3418l6.72754,18.48535c.00439.01215.01721.0177.02246.0293a.49882.49882,0,0,0,.042.10059.48031.48031,0,0,0,.10168.08685c.01111.00873.01892.01843.0307.02618a.49722.49722,0,0,0,.27631.095.47838.47838,0,0,0,.27216-.09589c.01074-.0072.01739-.01691.02759-.0249a.51133.51133,0,0,0,.11139-.10089.473.473,0,0,0,.03082-.08447c.0058-.01251.01959-.01862.02435-.03174l22.34131-61.38232A.4991.4991,0,0,0,218.83887,218.78906Zm-22.751,60.207-6.19531-17.02344,15.43115-42.397h12.3916Z" transform="translate(-102.79099 -218.57568)"/><path d="M153.6626,254.52734a.49977.49977,0,0,0,.93945,0l6.2583-17.19428,6.25781,17.19428a.49977.49977,0,0,0,.93945,0l6.731-18.49316a.49563.49563,0,0,0,0-.3418l-6.10986-16.7876c-.0058-.016-.02209-.0238-.02936-.03894a.18794.18794,0,0,0-.10742-.14239.46257.46257,0,0,0-.06738-.06213.48639.48639,0,0,0-.21045-.07172c-.01428-.00171-.02832-.01212-.04285-.01254l-.00781-.00024h0l-14.70377-.00061h0l-.01358,0c-.01453.00043-.02521.01172-.03949.01343a.48639.48639,0,0,0-.21045.07172.46258.46258,0,0,0-.06738.06213.18794.18794,0,0,0-.10742.14239c-.00726.01514-.02356.02295-.02936.03894l-6.11035,16.7876a.49564.49564,0,0,0,0,.3418Zm20.124-18.66406-6.19873,17.03125-6.18945-17.0058,6.76807-15.46832Zm-6.34229-16.2876-6.584,15.04834-6.584-15.04834Zm-13.89014.84473,6.76807,15.46832-6.18994,17.0058-6.19873-17.03125Z" transform="translate(-102.79099 -218.57568)"/><path d="M168.061,269.41016l-6.731-18.49414a.52023.52023,0,0,0-.93945,0L149.69727,280.2959a.49948.49948,0,0,0,.46973.6709h21.38623a.49948.49948,0,0,0,.46973-.6709ZM150.88086,279.9668l9.97949-27.418,9.979,27.418Z" transform="translate(-102.79099 -218.57568)"/><path d="M187.061,269.41016a.49977.49977,0,0,0-.93945,0L182.163,280.28561h0a.5046.5046,0,0,0-.02478.20291.47516.47516,0,0,0,.01935.09753.53178.53178,0,0,0,.01233.06238c.00446.01147.01672.01666.022.02765a.4909.4909,0,0,0,.02783.07294.47878.47878,0,0,0,.10168.09.46334.46334,0,0,0,.053.04688.50029.50029,0,0,0,.26129.08093h7.91748a.49948.49948,0,0,0,.46973-.6709Zm-3.71777,10.55664,3.248-8.92383,3.248,8.92383Z" transform="translate(-102.79099 -218.57568)"/><path d="M199.89893,219.24658a.49985.49985,0,0,0-.46973-.6709H185.97363a.49974.49974,0,0,0-.46973.3291l-15.61328,42.897a.49564.49564,0,0,0,0,.3418l6.72754,18.48535.017.02222a.4833.4833,0,0,0,.044.10767.48871.48871,0,0,0,.11316.09729l.01575.01361a.48813.48813,0,0,0,.27686.09711.498.498,0,0,0,.2785-.09589c.01074-.0072.01739-.01691.02759-.0249a.51133.51133,0,0,0,.11139-.10089.473.473,0,0,0,.03082-.08447c.0058-.01251.01959-.01862.02435-.03174Zm-13.5752.3291h12.3916l-21.62744,59.42041-6.19531-17.02344Z" transform="translate(-102.79099 -218.57568)"/><path d="M139.55762,280.28711l-3.959-10.877a.52078.52078,0,0,0-.93945,0l-3.96191,10.88574a.49948.49948,0,0,0,.46973.6709l7.921-.00031h0a.48884.48884,0,0,0,.27155-.092.47138.47138,0,0,0,.04266-.03864.51057.51057,0,0,0,.10028-.09076.47237.47237,0,0,0,.03442-.09436c.0058-.01343.02051-.02057.02515-.03455a.483.483,0,0,0,.0094-.06.49822.49822,0,0,0-.01379-.2691Zm-7.67676-.32031,3.248-8.92383,3.248,8.92383Z" transform="translate(-102.79099 -218.57568)"/></svg>