<svg id="Слой_1" data-name="Слой 1" xmlns="http://www.w3.org/2000/svg" viewBox="0 0 500 77.1222"><defs><style>.cls-1{fill:#524493;}.cls-2{fill:#7b5fc5;}.cls-3{fill:#f2a1db;}</style></defs><title>border_color</title><path d="M23.86858,288.5611l.0042-.01152Z" transform="translate(0 -211.4389)"/><path d="M0,288.5611l.0042-.01152Z" transform="translate(0 -211.4389)"/><polygon class="cls-1" points="88.514 77.111 116.58 0 99.676 0 80.062 53.889 88.514 77.111"/><path d="M64.64093,288.5611l.00422-.0115Z" transform="translate(0 -211.4389)"/><polygon class="cls-2" points="35.027 0 27.351 21.09 35.807 44.322 44.259 21.1 35.027 0"/><polygon class="cls-1" points="56.193 7.425 53.491 0 44.259 21.1 52.711 44.322 61.167 21.09 56.193 7.425"/><polygon class="cls-3" points="52.715 63.446 44.259 40.214 30.826 77.122 57.692 77.122 52.715 63.446"/><polygon class="cls-3" points="76.583 63.446 71.61 77.111 71.61 77.122 81.561 77.122 76.583 63.446"/><polygon class="cls-1" points="75.807 0 56.193 53.889 64.645 77.111 92.711 0 75.807 0"/><path class="cls-1" d="M88.50948,288.5611l.00422-.0115Z" transform="translate(0 -211.4389)"/><path class="cls-1" d="M71.60986,288.5611l0-.0115Z" transform="translate(0 -211.4389)"/><path d="M16.90383,288.5611l.00422-.0115Z" transform="translate(0 -211.4389)"/><polygon class="cls-3" points="11.935 63.446 6.957 77.122 16.904 77.122 16.908 77.111 11.935 63.446"/><polygon class="cls-3" points="44.974 0 35.027 0 44.259 21.1 53.491 0 44.974 0"/><path d="M149.59307,211.43893l.00422.0115Z" transform="translate(0 -211.4389)"/><path d="M125.72452,211.43893l.00422.0115Z" transform="translate(0 -211.4389)"/><polygon class="cls-1" points="214.238 0.012 242.304 77.122 225.4 77.122 205.786 23.233 214.238 0.012"/><path d="M190.36542,211.43893l.00422.0115Z" transform="translate(0 -211.4389)"/><polygon class="cls-2" points="160.752 77.122 153.076 56.033 161.532 32.801 169.983 56.022 160.752 77.122"/><polygon class="cls-1" points="181.918 69.697 179.215 77.122 169.983 56.022 178.435 32.801 186.891 56.033 181.918 69.697"/><polygon class="cls-3" points="178.439 13.676 169.983 36.908 156.55 0 183.417 0 178.439 13.676"/><polygon class="cls-3" points="202.308 13.676 197.334 0.012 197.334 0 207.285 0 202.308 13.676"/><polygon class="cls-2" points="154.567 32.801 138.435 77.122 121.531 77.122 149.597 0.012 158.049 23.233 154.567 32.801"/><polygon class="cls-2" points="114.567 77.122 97.663 77.122 125.729 0.012 134.181 23.233 114.567 77.122"/><polygon class="cls-1" points="201.532 77.122 181.918 23.233 190.37 0.012 218.436 77.122 201.532 77.122"/><path class="cls-1" d="M214.234,211.43893l.00422.0115Z" transform="translate(0 -211.4389)"/><path class="cls-1" d="M197.33435,211.43893l0,.0115Z" transform="translate(0 -211.4389)"/><path d="M142.62832,211.43893l.00422.0115Z" transform="translate(0 -211.4389)"/><polygon class="cls-3" points="137.659 13.676 132.682 0 142.628 0 142.633 0.012 137.659 13.676"/><polygon class="cls-3" points="170.698 77.122 160.752 77.122 169.983 56.022 179.215 77.122 170.698 77.122"/><path d="M249.99584,288.56108,250,288.54957Z" transform="translate(0 -211.4389)"/><polygon class="cls-2" points="245.798 0 250 11.544 250 0 245.798 0"/><polygon class="cls-2" points="221.93 0 250 77.111 250 77.099 250 30.679 238.834 0 221.93 0"/><polygon class="cls-2" points="28.842 44.322 12.711 0 0 0 0 11.521 23.873 77.111 32.325 53.889 28.842 44.322"/><polygon class="cls-2" points="0.004 77.111 8.456 53.889 0 30.656 0 77.099 0.004 77.111"/><path d="M273.86858,288.5611l.0042-.01152Z" transform="translate(0 -211.4389)"/><path d="M249.99584,288.56108,250,288.54957Z" transform="translate(0 -211.4389)"/><polygon class="cls-1" points="338.514 77.111 366.58 0 349.676 0 330.062 53.889 338.514 77.111"/><path d="M314.64093,288.5611l.00422-.0115Z" transform="translate(0 -211.4389)"/><polygon class="cls-2" points="285.027 0 277.351 21.09 285.807 44.322 294.259 21.1 285.027 0"/><polygon class="cls-1" points="306.193 7.425 303.491 0 294.259 21.1 302.711 44.322 311.167 21.09 306.193 7.425"/><polygon class="cls-3" points="302.715 63.446 294.259 40.214 280.826 77.122 307.692 77.122 302.715 63.446"/><polygon class="cls-3" points="326.583 63.446 321.61 77.111 321.61 77.122 331.561 77.122 326.583 63.446"/><polygon class="cls-1" points="325.807 0 306.193 53.889 314.645 77.111 342.711 0 325.807 0"/><path class="cls-1" d="M338.50948,288.5611l.00422-.0115Z" transform="translate(0 -211.4389)"/><path class="cls-1" d="M321.60986,288.5611l0-.0115Z" transform="translate(0 -211.4389)"/><path d="M266.90383,288.5611l.00422-.0115Z" transform="translate(0 -211.4389)"/><polygon class="cls-3" points="261.935 63.446 256.957 77.122 266.904 77.122 266.908 77.111 261.935 63.446"/><polygon class="cls-3" points="294.974 0 285.027 0 294.259 21.1 303.491 0 294.974 0"/><path d="M399.59307,211.43893l.00422.0115Z" transform="translate(0 -211.4389)"/><path d="M375.72452,211.43893l.00422.0115Z" transform="translate(0 -211.4389)"/><polygon class="cls-1" points="464.238 0.012 492.304 77.122 475.4 77.122 455.786 23.233 464.238 0.012"/><path d="M440.36542,211.43893l.00422.0115Z" transform="translate(0 -211.4389)"/><polygon class="cls-2" points="410.752 77.122 403.076 56.033 411.532 32.801 419.983 56.022 410.752 77.122"/><polygon class="cls-1" points="431.918 69.697 429.215 77.122 419.983 56.022 428.435 32.801 436.891 56.033 431.918 69.697"/><polygon class="cls-3" points="428.439 13.676 419.983 36.908 406.55 0 433.417 0 428.439 13.676"/><polygon class="cls-3" points="452.308 13.676 447.334 0.012 447.334 0 457.285 0 452.308 13.676"/><polygon class="cls-2" points="404.567 32.801 388.435 77.122 371.531 77.122 399.597 0.012 408.049 23.233 404.567 32.801"/><polygon class="cls-2" points="364.567 77.122 347.663 77.122 375.729 0.012 384.181 23.233 364.567 77.122"/><polygon class="cls-1" points="451.532 77.122 431.918 23.233 440.37 0.012 468.436 77.122 451.532 77.122"/><path class="cls-1" d="M464.234,211.43893l.00422.0115Z" transform="translate(0 -211.4389)"/><path class="cls-1" d="M447.33435,211.43893l0,.0115Z" transform="translate(0 -211.4389)"/><path d="M392.62832,211.43893l.00422.0115Z" transform="translate(0 -211.4389)"/><polygon class="cls-3" points="387.659 13.676 382.682 0 392.628 0 392.633 0.012 387.659 13.676"/><polygon class="cls-3" points="420.698 77.122 410.752 77.122 419.983 56.022 429.215 77.122 420.698 77.122"/><path d="M499.99164,288.56107l.00422-.0115Z" transform="translate(0 -211.4389)"/><polygon class="cls-2" points="495.798 0 500 11.544 500 0 495.798 0"/><polygon class="cls-2" points="471.93 0 499.996 77.111 500 77.099 500 30.679 488.834 0 471.93 0"/><polygon class="cls-2" points="278.842 44.322 262.711 0 250 0 250 11.521 273.873 77.111 282.325 53.889 278.842 44.322"/><polygon class="cls-2" points="250 77.111 258.456 53.889 250 30.656 250 77.099 250 77.111"/></svg>