<svg id="Слой_1" data-name="Слой 1" xmlns="http://www.w3.org/2000/svg" viewBox="0 0 254.27978 135.58084"><defs><style>.cls-1{fill:#524493;}.cls-2{fill:#7b5fc5;}.cls-3{fill:#f2a1db;}</style></defs><title>sign_color</title><polygon points="91.294 135.581 91.308 135.581 91.301 135.561 91.294 135.581"/><polygon points="49.333 135.581 49.347 135.581 49.34 135.561 49.333 135.581"/><polygon class="cls-1" points="204.94 135.561 254.28 0 224.563 0 190.081 94.737 204.94 135.561"/><polygon points="162.986 135.581 162.979 135.561 162.971 135.581 162.986 135.581"/><polygon class="cls-2" points="110.911 0 106.159 13.054 97.416 37.075 106.159 61.097 112.282 77.917 121.025 53.896 127.14 37.094 110.911 0"/><polygon class="cls-1" points="148.12 13.054 143.369 0 127.14 37.094 133.255 53.895 141.998 77.917 148.12 61.097 156.864 37.076 148.12 13.054"/><polygon class="cls-3" points="142.005 111.539 135.883 94.719 127.14 70.697 118.397 94.719 112.275 111.539 103.524 135.581 121.011 135.581 121.025 135.581 133.255 135.581 133.269 135.581 150.756 135.581 142.005 111.539"/><polygon class="cls-3" points="183.966 111.539 175.223 135.561 175.23 135.581 192.717 135.581 183.966 111.539"/><polygon class="cls-2" points="100.037 77.917 91.294 53.895 85.179 37.094 71.678 0 41.961 0 70.321 77.917 76.436 94.719 85.179 118.741 91.301 135.561 106.159 94.737 100.037 77.917"/><polygon class="cls-2" points="29.717 0 0 0 49.34 135.561 64.198 94.737 29.717 0"/><polygon class="cls-1" points="182.602 0 169.101 37.094 162.986 53.896 154.242 77.917 148.12 94.737 162.979 135.561 169.101 118.741 177.844 94.719 183.959 77.917 212.319 0 182.602 0"/><polygon class="cls-1" points="204.932 135.581 204.947 135.581 204.94 135.561 204.932 135.581"/><polygon class="cls-1" points="175.215 135.581 175.23 135.581 175.223 135.561 175.215 135.581"/><polygon points="79.05 135.581 79.064 135.581 79.057 135.561 79.05 135.581"/><polygon class="cls-3" points="70.314 111.539 61.563 135.581 79.05 135.581 79.057 135.561 70.314 111.539"/><polygon class="cls-3" points="128.397 0 125.883 0 110.911 0 127.14 37.094 143.369 0 128.397 0"/></svg>